<svg xmlns="http://www.w3.org/2000/svg" width="15" height="15" fill="none"><path fill="#fff" d="M14.66.56c.087.27.119.499.045.774-.121.2-.259.361-.424.526l-.148.148-.162.161-.634.634q-.243.24-.485.484L10.89 5.245 8.74 7.389l.09.09a2076 2076 0 0 1 3.204 3.19l1.393 1.388q.27.267.538.537l.161.159c.602.604.602.604.637.972-.072.454-.2.66-.56.948-.27.088-.498.12-.774.046a2.7 2.7 0 0 1-.525-.424l-.149-.148-.16-.162-.172-.17-.462-.464-.484-.485-.916-.918-1.043-1.044-2.144-2.15-.089.09a2042 2042 0 0 1-3.195 3.209l-1.388 1.394-.537.538-.16.162c-.364.362-.653.602-1.186.617-.327-.079-.527-.285-.729-.546-.088-.27-.12-.498-.045-.774.12-.2.258-.36.423-.526l.148-.148.162-.16.171-.172.464-.462.484-.484L3.86 9.533 6.009 7.39l-.09-.09a2061 2061 0 0 1-3.207-3.194L1.318 2.717l-.7-.697C.255 1.656.014 1.367 0 .834.08.507.285.306.547.105c.27-.088.498-.12.773-.045.2.12.361.258.526.423l.148.148.161.162.171.171.463.464.484.484L5.23 3.875l2.144 2.148.09-.09a2057 2057 0 0 1 3.19-3.204l1.388-1.392q.267-.27.537-.539l.159-.161c.605-.601.605-.601.972-.637.454.073.66.2.948.56"/></svg>